<?xml version="1.0" encoding="utf-8"?><svg viewBox="0 0 50 50" xmlns="http://www.w3.org/2000/svg" xmlns:xlink="http://www.w3.org/1999/xlink"><style>:root>svg{display:none}:root>svg:target{display:block}</style><svg viewBox="0 0 15 13" id="tg" xmlns="http://www.w3.org/2000/svg"><path fill-rule="evenodd" clip-rule="evenodd" d="M12.004 12.033a1 1 0 01-1.78.53c-1.09-.868-2.79-2.116-2.79-2.116s-1.23 2.167-1.45 2.39a.682.682 0 01-1-.134.863.863 0 00-.04-.1l.69-3.452 4.92-4.833-6.71 3.83S.814 7.24.364 7.063a.7.7 0 01.07-1.262c.64-.326 11.93-4.638 12.31-4.749.38-.11 1.38-.4 1.27.573-.11.973-1.9 9.873-2.01 10.407z"/></svg><svg viewBox="0 0 50 50" id="tg2" xmlns="http://www.w3.org/2000/svg"><g clip-path="url(#bclip0_90_59)"><path d="M33.334 40.618c-.39 0-.812-.164-1.263-.491a6856.817 6856.817 0 01-6.307-4.584l-.454-.33c-.69-.502-.744-.5-1.433.07a320.6 320.6 0 01-3.416 2.787c-.239.192-.966.776-1.734.542-.766-.234-1.04-1.117-1.13-1.407l-.637-2.04c-.63-2.022-1.283-4.113-1.905-6.176-.074-.245-.143-.303-.344-.375a623.527 623.527 0 01-4.651-1.71c-.545-.2-1.089-.402-1.633-.604-.399-.147-1-.37-1.406-.936a.672.672 0 01-.124-.39c0-.972.383-1.533 1.28-1.878 10.548-4.056 20.06-7.715 29.658-11.424 1.276-.493 1.959.131 2.307.741a.672.672 0 01.088.333c0 .365-5.352 26.057-5.406 26.317-.162.776-.504 1.27-1.015 1.467a1.305 1.305 0 01-.475.088zM24.606 33.5c.456 0 .92.21 1.494.627l.454.33 6.306 4.583c.276.2.42.23.463.234.028-.031.116-.15.185-.484 1.65-7.917 4.92-23.726 5.34-25.894-.09-.085-.22-.091-.53.029-9.599 3.709-19.111 7.368-29.66 11.423-.286.11-.38.173-.408.379.196.137.412.243.641.313l1.634.605c1.52.563 3.092 1.145 4.641 1.705a1.776 1.776 0 011.173 1.25c.62 2.058 1.271 4.145 1.902 6.163l.637 2.042c.109.352.206.478.242.515.051-.011.205-.062.5-.298a326.057 326.057 0 003.4-2.776c.607-.499 1.092-.746 1.586-.746zm-5.415 1.289h-.018c-.793-.01-.99-.704-1.065-.965-.18-.63-.362-1.259-.546-1.887-.317-1.09-.645-2.217-.95-3.333-.196-.72-.175-1.735 1.044-2.489 4.1-2.536 14.236-8.77 14.368-8.84a.673.673 0 01.25-.075c.53-.05.853.232.981.514a1.023 1.023 0 01-.278 1.152c-.635.598-8.375 7.8-11.599 10.778-.5.463-.745.952-.794 1.587-.056.73-.168 1.455-.278 2.155l-.05.33c-.128.884-.646 1.073-1.065 1.073zm9.913-14.15a5352.991 5352.991 0 00-10.742 6.618c-.522.323-.563.598-.455.993.302 1.105.629 2.227.944 3.311l.247.847c.061-.427.116-.857.148-1.28a3.614 3.614 0 011.221-2.471c2.05-1.893 5.925-5.494 8.637-8.017z"/><path d="M25 49.607c13.59 0 24.607-11.017 24.607-24.607S38.59.393 25 .393.393 11.41.393 25 11.41 49.607 25 49.607z"/></g><defs><clipPath id="bclip0_90_59"><path d="M0 0h50v50H0z"/></clipPath></defs></svg></svg>