<?xml version="1.0" encoding="utf-8"?><svg viewBox="0 0 15 13" xmlns="http://www.w3.org/2000/svg" xmlns:xlink="http://www.w3.org/1999/xlink"><style>:root>svg{display:none}:root>svg:target{display:block}</style><svg viewBox="0 0 15 13" id="tg" xmlns="http://www.w3.org/2000/svg"><path fill-rule="evenodd" clip-rule="evenodd" d="M12.004 12.033a1 1 0 01-1.78.53c-1.09-.868-2.79-2.116-2.79-2.116s-1.23 2.167-1.45 2.39a.682.682 0 01-1-.134.863.863 0 00-.04-.1l.69-3.452 4.92-4.833-6.71 3.83S.814 7.24.364 7.063a.7.7 0 01.07-1.262c.64-.326 11.93-4.638 12.31-4.749.38-.11 1.38-.4 1.27.573-.11.973-1.9 9.873-2.01 10.407z"/></svg></svg>