<?xml version="1.0" encoding="utf-8"?><svg viewBox="0 0 100 100" xmlns="http://www.w3.org/2000/svg" xmlns:xlink="http://www.w3.org/1999/xlink"><style>:root>svg{display:none}:root>svg:target{display:block}</style><svg fill="none" viewBox="0 0 100 100" id="inst" xmlns="http://www.w3.org/2000/svg"><path d="M50.3 29c-11.6 0-21.1 9.5-21.1 21.1 0 11.6 9.5 21.1 21.1 21.1 11.6 0 21-9.5 21-21.1 0-11.6-9.5-21.1-21-21.1zm0 37.2c-8.9 0-16.1-7.2-16.1-16.1 0-8.9 7.2-16.1 16.1-16.1 8.8 0 16 7.2 16 16.1 0 8.9-7.2 16.1-16 16.1zM73.8 17.1c-2.2 0-4.2.8-5.7 2.3-1.5 1.5-2.3 3.5-2.3 5.7s.8 4.2 2.3 5.7c1.5 1.5 3.5 2.3 5.7 2.3s4.2-.8 5.7-2.3c1.4-1.4 2.3-3.4 2.4-5.6v-.1c0-2.1-.9-4.1-2.3-5.5-1.5-1.6-3.6-2.5-5.8-2.5zm2.1 10.1c-1.1 1.1-3.2 1.1-4.3 0-.6-.6-.9-1.3-.9-2.1s.3-1.6.9-2.1c.6-.6 1.3-.9 2.1-.9s1.6.3 2.2.9c.5.5.9 1.3.9 2 0 .9-.3 1.7-.9 2.2z" fill="#FE91AE"/><path d="M67.8 7H32.7C18.6 7 7.2 18.4 7.2 32.5v35.2c0 14.1 11.4 25.5 25.5 25.5h35.2c14.1 0 25.5-11.4 25.5-25.5V32.5C93.3 18.4 81.9 7 67.8 7zm20.5 60.7c0 11.3-9.2 20.5-20.5 20.5H32.7c-11.3 0-20.5-9.2-20.5-20.5V32.5c0-11.3 9.2-20.5 20.5-20.5h35.2c11.3 0 20.5 9.2 20.5 20.5v35.2h-.1z" fill="#FE91AE"/></svg><svg fill="none" viewBox="0 0 39 39" id="mark" xmlns="http://www.w3.org/2000/svg"><path d="M19.5 26.539a1.5 1.5 0 01-1.15-.536l-7.999-9.538a1.5 1.5 0 112.299-1.928l6.848 8.165L36.349 2.54a1.5 1.5 0 012.302 1.924L20.651 26a1.5 1.5 0 01-1.15.538H19.5z" fill="#FFBCBC"/><path d="M19.5 39C8.748 39 0 30.252 0 19.5S8.748 0 19.5 0c4.065 0 7.962 1.24 11.27 3.588a1.5 1.5 0 01-1.737 2.446A16.383 16.383 0 0019.5 3C10.402 3 3 10.402 3 19.5 3 28.598 10.402 36 19.5 36 28.598 36 36 28.598 36 19.5c0-1.735-.268-3.443-.796-5.076a1.5 1.5 0 012.854-.924c.625 1.933.942 3.951.942 6C39 30.252 30.252 39 19.5 39z" fill="#FFBCBC"/></svg><svg fill="none" viewBox="0 0 27 33" id="offer" xmlns="http://www.w3.org/2000/svg"><path d="M25.111 5.828h-6.767a.494.494 0 01-.073-.095 2.886 2.886 0 00.743-1.932A2.885 2.885 0 0016.132.92 2.885 2.885 0 0013.25 3.8c0 .717.268 1.406.743 1.933a.499.499 0 01-.073.094H7.153c-.785 0-1.423.639-1.423 1.424v14.474a.468.468 0 10.936 0V7.252c0-.269.219-.487.487-.487h4.692a2.272 2.272 0 00-.311.464H7.981a.851.851 0 00-.85.85v13.647a.468.468 0 10.936 0V8.166h3.228a2.291 2.291 0 00-.001.083v.387c0 .492.4.892.892.892h7.891c.492 0 .893-.4.893-.892V8.25c0-.028 0-.056-.002-.083h3.23v6.675a.468.468 0 10.936 0V8.079a.851.851 0 00-.85-.85h-3.556a2.278 2.278 0 00-.31-.464h4.693c.268 0 .487.218.487.487v24.207a.488.488 0 01-.487.487H7.153a.487.487 0 01-.487-.487v-2.258h.465v1.43c0 .47.38.85.85.85h13.683c.124 0 .243-.049.33-.136l3.003-3.002a.468.468 0 00.136-.345V16.714a.468.468 0 10-.936 0v10.83h-2.152a.851.851 0 00-.85.85v2.151H8.067V29.2h2.34c.36 0 .674-.2.836-.496 6.057-.02 5.905.073 6.308-.141l1.784-.949a.833.833 0 00.442-.694v-.005-.01-.005-.01-.005-.008-.008-.007-.009-.005-.01-.005-.01l-.001-.004v-.012l-.001-.002-.001-.012v-.003l-.002-.01v-.004l-.001-.008v-.006l-.002-.008v-.006l-.002-.007-.001-.007-.001-.005-.002-.01a.218.218 0 00-.003-.014v-.001a.835.835 0 00-.425-.566c-1.729-.92-1.903-1.09-2.349-1.09h-5.743a.955.955 0 00-.837-.496H4.602c.025-.193-.063-.39.103-.535a.296.296 0 01.238-.07l2.336.328c.714.102 1.062-.443 1.247-.568a.468.468 0 10-.628-.694c-.274.223-.325.359-.487.335l-2.338-.33a1.236 1.236 0 00-1.408 1.225v.309H3.27a1.25 1.25 0 00-1.238 1.096h-.265a1.23 1.23 0 00-1.229 1.228 1.23 1.23 0 001.229 1.229h.264a1.25 1.25 0 001.24 1.096H5.73v2.258c0 .785.638 1.424 1.423 1.424h17.958c.785 0 1.423-.639 1.423-1.424V7.252c0-.785-.638-1.424-1.423-1.424zm-5.077 2.764H12.23c.03-.137-.134-.763.392-1.288.252-.253.588-.392.945-.392.7 0 1.294-.5 1.412-1.19l.007-.04a.468.468 0 00-.15-.429 1.948 1.948 0 01-.65-1.452c0-1.072.873-1.945 1.946-1.945a1.948 1.948 0 011.295 3.397.468.468 0 00-.149.429l.007.04a1.434 1.434 0 001.412 1.19c.737 0 1.337.6 1.337 1.337v.343zm2.098 19.888h1.403l-1.404 1.403V28.48zm-4.596-.97v-1.268l1.192.634-.048.025-1.143.609zm-.936.257h-5.24v-1.783h5.24v1.783zm-15.125-.891c0-.161.13-.292.292-.292h.255v.584h-.255a.292.292 0 01-.292-.292zm1.483 1.076v-.306-.01-1.511-.01-.315c0-.172.14-.312.312-.312h7.136c.01 0 .017.007.018.016V28.248a.018.018 0 01-.018.016H3.27a.312.312 0 01-.312-.312z" fill="#fff"/><path d="M17.557 3.802c0-.786-.64-1.426-1.425-1.426a1.427 1.427 0 000 2.852 1.424 1.424 0 001.425-1.426zm-1.025.28a.488.488 0 11-.8-.558.488.488 0 01.8.559zM11.543 16.245h1.332a.969.969 0 00.968-.967v-1.332a.969.969 0 00-.968-.967h-1.332a.969.969 0 00-.967.967v1.332c0 .534.434.967.967.967zm-.03-2.299c0-.017.013-.031.03-.031h1.332c.017 0 .031.014.031.031v1.332a.031.031 0 01-.03.031h-1.333a.031.031 0 01-.03-.031v-1.332zM16.205 16.246h5.015a.468.468 0 100-.937h-5.015a.468.468 0 100 .937zM10.576 20.88c0 .534.434.968.967.968h1.332a.969.969 0 00.968-.967v-1.332a.969.969 0 00-.968-.968h-1.332a.969.969 0 00-.967.968v1.332zm.936-1.331c0-.017.014-.031.031-.031h1.332c.017 0 .031.014.031.03v1.333a.031.031 0 01-.03.03h-1.333a.031.031 0 01-.03-.03v-1.332zM16.205 21.849h5.015a.468.468 0 100-.937h-5.015a.468.468 0 100 .937z" fill="#fff"/></svg><svg fill="none" viewBox="0 0 51 45" id="pay" xmlns="http://www.w3.org/2000/svg"><path d="M48.382 6.843L17.908.394a2.403 2.403 0 00-2.84 1.848l-.58 3.721 35.163 7.441.579-3.72a2.403 2.403 0 00-1.848-2.84zM35.567 14.193a2.426 2.426 0 00-2.977-1.684l-5.785 1.606-13.638-2.886-1.5 7.086-9.372 2.601a2.425 2.425 0 00-1.683 2.977l5.28 19.031a2.426 2.426 0 002.978 1.684l30.294-8.407a2.426 2.426 0 001.684-2.977l-.907-3.267 3.398.718a2.402 2.402 0 002.84-1.848l2.15-10.158-12.239-2.59-.523-1.886zm3.498 9.673l.75-3.541a.99.99 0 011.168-.76l3.54.75c.531.112.873.637.761 1.167l-.749 3.541a.989.989 0 01-1.168.76l-3.541-.749a.989.989 0 01-.76-1.168zm-36.243-1.05l8.384-2.326L30.987 15l2.129-.591a.457.457 0 01.55.311l.25.9.783 2.822-31.155 8.645-1.033-3.72a.453.453 0 01.311-.551zM38.948 33.75a.44.44 0 01-.044.338.435.435 0 01-.267.212L8.343 42.708a.458.458 0 01-.55-.311l-3.08-11.1 31.154-8.647 1.9 6.847 1.181 4.254z" fill="#fff"/><path d="M13.238 34.51a.989.989 0 00-1.213-.686l-3.538.982A.988.988 0 007.8 36.02l.981 3.537a.988.988 0 001.214.686l3.538-.982a.989.989 0 00.686-1.214l-.982-3.537z" fill="#fff"/></svg><svg viewBox="0 0 24 24" id="phone" xmlns="http://www.w3.org/2000/svg"><path d="M20.487 17.14l-4.065-3.696a1.001 1.001 0 00-1.391.043l-2.393 2.461c-.576-.11-1.734-.471-2.926-1.66-1.192-1.193-1.553-2.354-1.66-2.926l2.459-2.394a1 1 0 00.043-1.391L6.859 3.513a1 1 0 00-1.391-.087l-2.17 1.861a1 1 0 00-.29.649c-.015.25-.301 6.172 4.291 10.766C11.305 20.707 16.323 21 17.705 21c.202 0 .326-.006.359-.008a.992.992 0 00.648-.291l1.86-2.171a.997.997 0 00-.085-1.39z"/></svg><svg fill="none" viewBox="0 0 53 35" id="ship" xmlns="http://www.w3.org/2000/svg"><path d="M26.221 6.806h-9.5a1.1 1.1 0 100 2.202h9.5a1.101 1.101 0 000-2.202zM26.221 12.386H8.366a1.101 1.101 0 000 2.202H26.22a1.101 1.101 0 000-2.202zM26.221 18.524h-6.68a1.1 1.1 0 100 2.202h6.68a1.101 1.101 0 000-2.202z" fill="#fff"/><path d="M49.055 13.729a1.091 1.091 0 00-.288-.199L44.87 7.698a5.493 5.493 0 00-4.589-2.465H35.13A5.511 5.511 0 0029.631 0H1.101A1.1 1.1 0 000 1.1v27.051a1.1 1.1 0 001.1 1.101h3.68a6.603 6.603 0 0013.032 0h15.985a6.603 6.603 0 0013.032 0h5.07c.608 0 1.101-.492 1.101-1.1v-8.28a5.534 5.534 0 00-1.684-3.962l-2.26-2.181zm-6.018-4.812l3.01 4.503h-10.91V7.435h5.144c1.11-.001 2.146.556 2.756 1.482zm-31.74 23.669a4.402 4.402 0 11-.001-8.805 4.402 4.402 0 010 8.805zm29.016 0a4.402 4.402 0 110-8.805 4.402 4.402 0 010 8.805zm10.485-5.535h-3.98a6.603 6.603 0 00-13.01 0H17.801a6.603 6.603 0 00-13.01 0h-2.59V2.2h27.431a3.307 3.307 0 013.303 3.303v9.017a1.1 1.1 0 001.1 1.101h13.812l1.941 1.873a3.32 3.32 0 011.01 2.377v7.179z" fill="#fff"/></svg><svg fill="none" viewBox="0 0 36 51" id="size" xmlns="http://www.w3.org/2000/svg"><path d="M35.399 48.727l-2.025-.02-.006-3.116 2.003.005h.001a.604.604 0 10.002-1.208l-2.009-.006-.005-2.431 1.179.003h.001a.604.604 0 00.002-1.209l-1.184-.003-.006-2.43 2.003.005h.002a.604.604 0 00.002-1.209l-2.01-.005-.004-2.432 1.178.003h.002a.604.604 0 10.001-1.209l-1.184-.003-.005-2.43 2.003.005h.002a.604.604 0 00.002-1.209l-2.01-.005-.005-2.432 1.18.003h.001a.604.604 0 10.002-1.208l-1.185-.003-.005-2.431 2.003.005h.002a.605.605 0 00.002-1.208l-2.01-.006-.005-2.431 1.18.003h.001a.604.604 0 10.002-1.209l-1.185-.003-.005-2.431 2.003.005h.002a.604.604 0 10.002-1.208l-2.01-.006-.005-2.431 1.18.003h.001a.605.605 0 00.002-1.209l-1.185-.003-.005-2.43 2.003.005h.002a.604.604 0 00.002-1.209l-2.01-.005-.005-2.432 1.18.003h.002a.604.604 0 00.001-1.209l-1.185-.002-.006-2.95 2.01.02h.006a.604.604 0 10.006-1.208L32.676.179a.593.593 0 00-.431.175.604.604 0 00-.18.43l.102 48.522a.605.605 0 00.598.603l2.621.027h.007a.604.604 0 00.006-1.21v.001zM28.394 44.742l-1.771-.003-.004-1.794a.605.605 0 00-.604-.603h-.002a.604.604 0 00-.603.605l.004 1.79-1.767-.004a.66.66 0 00-.545 1.038l2.353 3.404a.662.662 0 00.542.286H26a.661.661 0 00.541-.28l2.393-3.395a.663.663 0 00-.54-1.043zm-2.39 3.102l-1.314-1.9 2.65.005-1.336 1.895zM23.564 5.416l1.771.003.004 2.075a.604.604 0 00.605.603.604.604 0 00.604-.605l-.004-2.07 1.766.004h.002a.662.662 0 00.544-1.038L26.502.983a.663.663 0 00-.541-.286h-.004a.662.662 0 00-.54.28l-2.393 3.395a.662.662 0 00.54 1.044zm2.39-3.102l1.313 1.9-2.65-.005 1.336-1.895zM25.972 22.298h.001a.606.606 0 00.603-.605l-.004-2.418a.605.605 0 00-.605-.603.604.604 0 00-.604.606l.005 2.417a.604.604 0 00.604.603zM25.963 17.564a.603.603 0 00.604-.605l-.005-2.417a.604.604 0 00-.604-.604h-.001a.604.604 0 00-.604.606l.005 2.417a.604.604 0 00.605.603zM25.954 12.83a.604.604 0 00.604-.605l-.005-2.417a.605.605 0 00-.605-.603.604.604 0 00-.604.605l.005 2.417a.604.604 0 00.604.603h.001zM25.982 27.032a.606.606 0 00.604-.605l-.005-2.418a.604.604 0 00-.604-.603h-.001a.604.604 0 00-.603.606l.004 2.417a.604.604 0 00.605.603zM25.991 31.766h.001a.606.606 0 00.603-.605l-.005-2.418a.605.605 0 00-.604-.603h-.001a.605.605 0 00-.603.606l.005 2.417a.605.605 0 00.604.603zM26.01 41.234h.001a.606.606 0 00.603-.606l-.005-2.417a.604.604 0 00-.604-.603h-.001a.604.604 0 00-.603.605l.005 2.417a.604.604 0 00.604.604zM26 36.5h.002a.601.601 0 00.603-.606l-.005-2.417a.604.604 0 00-.604-.603h-.002a.604.604 0 00-.602.605l.004 2.418A.604.604 0 0026 36.5zM17.753 0c-1.42 0-2.61 1.146-3.11 2.814-.506-.665-1.222-1.08-2.014-1.08-1.282 0-2.363 1.086-2.677 2.557A2.159 2.159 0 008.6 3.799c-1.22 0-2.238 1.085-2.456 2.513a1.991 1.991 0 00-.99-.268c-1.306 0-2.368 1.306-2.368 2.91v.028a1.87 1.87 0 00-.52-.075C1.016 8.907 0 10.154 0 11.687c0 1.532 1.017 2.778 2.266 2.778 1.229 0 2.231-1.205 2.265-2.702.2.068.41.102.622.103 1.118 0 2.056-.958 2.303-2.241.34.222.737.34 1.144.343 1.086 0 2.013-.86 2.356-2.058a2.43 2.43 0 001.672.7c.948 0 1.786-.595 2.286-1.5.593 1.272 1.632 2.1 2.838 2.1 1.888 0 3.366-2.023 3.366-4.605C21.118 2.023 19.64 0 17.753 0zM2.267 13.257c-.574 0-1.058-.72-1.058-1.57 0-.852.484-1.571 1.058-1.571.573 0 1.057.719 1.057 1.57 0 .851-.484 1.57-1.057 1.57zm2.886-2.6c-.628 0-1.158-.78-1.158-1.702 0-.923.53-1.702 1.158-1.702.628 0 1.159.78 1.159 1.702 0 .923-.53 1.702-1.159 1.702zM8.6 8.759c-.7 0-1.291-.859-1.291-1.876 0-1.016.591-1.875 1.291-1.875s1.291.859 1.291 1.875C9.891 7.9 9.3 8.76 8.6 8.76zm4.029-1.358c-.846 0-1.561-1.021-1.561-2.23 0-1.208.715-2.23 1.56-2.23.847 0 1.562 1.022 1.562 2.23 0 1.209-.715 2.23-1.561 2.23zm5.124.6c-1.17 0-2.157-1.556-2.157-3.396 0-1.841.988-3.396 2.157-3.396 1.17 0 2.157 1.555 2.157 3.396 0 1.84-.988 3.396-2.157 3.396z" fill="#fff"/><path d="M20.11 17.162a.604.604 0 00-.582.442 2.68 2.68 0 01-.02.069c-.657 2.267-2.298 4.489-3.087 5.556-1.203 1.63-2.077 3.632-2.671 6.12-1.345 5.634.982 9.738 2.044 11.241.826 1.168 1.142 2.6.867 3.926-.525 2.523-2.65 4.345-5.168 4.43a5.832 5.832 0 01-5.89-4.492 5.291 5.291 0 01-.09-1.829c.19-1.67.556-7.942-2.714-18.523-1.612-5.213 1.786-9.619 5.185-11.808 2.167-1.395 4.213-1.962 5.946-1.962 1.663 0 3.038.522 3.952 1.335.779.69 1.32 1.45 1.627 2.287a.598.598 0 00.564.387h.001a.606.606 0 00.565-.82c-.374-1.013-1.026-1.932-1.954-2.758-2.654-2.357-7.217-2.15-11.355.515-2.198 1.416-3.988 3.377-5.04 5.523-1.208 2.466-1.432 5.114-.645 7.658 3.2 10.357 2.85 16.418 2.667 18.03-.092.75-.053 1.51.116 2.247a7.037 7.037 0 007.106 5.419c3.076-.105 5.671-2.322 6.31-5.392.344-1.654-.043-3.429-1.062-4.87-1.202-1.7-3.042-5.295-1.856-10.262.556-2.329 1.363-4.188 2.467-5.684.83-1.124 2.558-3.463 3.276-5.938l.023-.082a.604.604 0 00-.582-.765z" fill="#fff"/><path d="M4.82 25.482a.604.604 0 01-.578-.43 79.66 79.66 0 00-.18-.593.604.604 0 111.154-.356c.063.201.124.401.183.6a.604.604 0 01-.579.779zM7.28 37.426a.604.604 0 01-.601-.548c-.285-3.054-.927-6.414-1.907-9.986a.604.604 0 011.165-.32c1 3.64 1.654 7.07 1.945 10.194a.604.604 0 01-.602.66z" fill="#fff"/></svg><svg fill="none" viewBox="0 0 15 13" id="tg" xmlns="http://www.w3.org/2000/svg"><path fill-rule="evenodd" clip-rule="evenodd" d="M12.004 12.033a1 1 0 01-1.78.53c-1.09-.868-2.79-2.116-2.79-2.116s-1.23 2.167-1.45 2.39a.682.682 0 01-1-.134.863.863 0 00-.04-.1l.69-3.452 4.92-4.833-6.71 3.83S.814 7.24.364 7.063a.7.7 0 01.07-1.262c.64-.326 11.93-4.638 12.31-4.749.38-.11 1.38-.4 1.27.573-.11.973-1.9 9.873-2.01 10.407z" fill="#fff"/></svg></svg>